<?xml version="1.0" encoding="UTF-8" standalone="no"?>
<!DOCTYPE svg PUBLIC "-//W3C//DTD SVG 1.1//EN"
 "http://www.w3.org/Graphics/SVG/1.1/DTD/svg11.dtd">
<!-- Generated by graphviz version 2.30.1 (20130625.0942)
 -->
<!-- Title: g Pages: 1 -->
<svg width="894pt" height="879pt"
 viewBox="0.00 0.00 894.00 879.00" xmlns="http://www.w3.org/2000/svg" xmlns:xlink="http://www.w3.org/1999/xlink">
<g id="graph0" class="graph" transform="scale(1 1) rotate(0) translate(4 875)">
<title>g</title>
<polygon fill="white" stroke="white" points="-4,5 -4,-875 891,-875 891,5 -4,5"/>
<!-- cr -->
<g id="node1" class="node"><title>cr</title>
<polygon fill="#34495e" stroke="none" points="360,-49 360,-96 533,-96 533,-49 360,-49"/>
<polygon fill="none" stroke="black" points="360,-49 360,-96 533,-96 533,-49 360,-49"/>
<text text-anchor="start" x="376.5" y="-67.9" font-family="Times,serif" font-size="14.00" fill="white">l_cryovial_retrieval as cr</text>
<polygon fill="none" stroke="black" points="360,-3 360,-49 533,-49 533,-3 360,-3"/>
<text text-anchor="start" x="410" y="-21.4" font-family="Times,serif" font-size="14.00"> &#160;rj_box_cid </text>
</g>
<!-- s1 -->
<g id="node2" class="node"><title>s1</title>
<polygon fill="#34495e" stroke="none" points="671,-563 671,-610 878,-610 878,-563 671,-563"/>
<polygon fill="none" stroke="black" points="671,-563 671,-610 878,-610 878,-563 671,-563"/>
<text text-anchor="start" x="718.5" y="-581.9" font-family="Times,serif" font-size="14.00" fill="white">cryovial_store as s1</text>
<polygon fill="none" stroke="black" points="671,-517 671,-563 878,-563 878,-517 671,-517"/>
<text text-anchor="start" x="746" y="-535.4" font-family="Times,serif" font-size="14.00"> &#160;box_cid </text>
<polygon fill="none" stroke="black" points="671,-471 671,-517 878,-517 878,-471 671,-471"/>
<text text-anchor="start" x="737" y="-489.4" font-family="Times,serif" font-size="14.00"> &#160;cryovial_id </text>
<polygon fill="none" stroke="black" points="671,-425 671,-471 878,-471 878,-425 671,-425"/>
<text text-anchor="start" x="743" y="-443.4" font-family="Times,serif" font-size="14.00">note_exists</text>
<polygon fill="none" stroke="black" points="671,-379 671,-425 878,-425 878,-379 671,-379"/>
<text text-anchor="start" x="747" y="-397.4" font-family="Times,serif" font-size="14.00">record_id</text>
<polygon fill="none" stroke="black" points="671,-333 671,-379 878,-379 878,-333 671,-333"/>
<text text-anchor="start" x="738.5" y="-351.4" font-family="Times,serif" font-size="14.00">retrieval_cid</text>
<polygon fill="none" stroke="black" points="671,-287 671,-333 878,-333 878,-287 671,-287"/>
<text text-anchor="start" x="687.5" y="-305.4" font-family="Times,serif" font-size="14.00">s1.tube_position as source_pos</text>
<polygon fill="none" stroke="black" points="671,-241 671,-287 878,-287 878,-241 671,-241"/>
<text text-anchor="start" x="758" y="-259.4" font-family="Times,serif" font-size="14.00">status</text>
<polygon fill="none" stroke="black" points="671,-195 671,-241 878,-241 878,-195 671,-195"/>
<text text-anchor="start" x="735.5" y="-213.4" font-family="Times,serif" font-size="14.00">tube_position</text>
</g>
<!-- t -->
<g id="node3" class="node"><title>t</title>
<polygon fill="#34495e" stroke="none" points="21,-609 21,-656 209,-656 209,-609 21,-609"/>
<polygon fill="none" stroke="black" points="21,-609 21,-656 209,-656 209,-609 21,-609"/>
<text text-anchor="start" x="61" y="-627.9" font-family="Times,serif" font-size="14.00" fill="white">c_object_name as t</text>
<polygon fill="none" stroke="black" points="21,-563 21,-609 209,-609 209,-563 21,-563"/>
<text text-anchor="start" x="79.5" y="-581.4" font-family="Times,serif" font-size="14.00"> &#160;object_cid </text>
<polygon fill="none" stroke="black" points="21,-517 21,-563 209,-563 209,-517 21,-517"/>
<text text-anchor="start" x="37.5" y="-535.4" font-family="Times,serif" font-size="14.00">t.external_name AS aliquot</text>
</g>
<!-- c -->
<g id="node6" class="node"><title>c</title>
<polygon fill="#34495e" stroke="none" points="377,-609 377,-656 516,-656 516,-609 377,-609"/>
<polygon fill="none" stroke="black" points="377,-609 377,-656 516,-656 516,-609 377,-609"/>
<text text-anchor="start" x="411" y="-627.9" font-family="Times,serif" font-size="14.00" fill="white">cryovial as c</text>
<polygon fill="none" stroke="black" points="377,-563 377,-609 516,-609 516,-563 377,-563"/>
<text text-anchor="start" x="393.5" y="-581.4" font-family="Times,serif" font-size="14.00"> &#160;aliquot_type_cid </text>
<polygon fill="none" stroke="black" points="377,-517 377,-563 516,-563 516,-517 377,-517"/>
<text text-anchor="start" x="398" y="-535.4" font-family="Times,serif" font-size="14.00">cryovial_barcode</text>
<polygon fill="none" stroke="black" points="377,-471 377,-517 516,-517 516,-471 377,-471"/>
<text text-anchor="start" x="409" y="-489.4" font-family="Times,serif" font-size="14.00"> &#160;cryovial_id </text>
<polygon fill="none" stroke="black" points="377,-425 377,-471 516,-471 516,-425 377,-425"/>
<text text-anchor="start" x="417.5" y="-443.4" font-family="Times,serif" font-size="14.00">sample_id</text>
</g>
<!-- t&#45;&gt;c -->
<g id="edge5" class="edge"><title>t:0&#45;&gt;c:8</title>
<path fill="none" stroke="black" d="M210,-586C283.778,-586 302.222,-586 376,-586"/>
</g>
<!-- br -->
<g id="node4" class="node"><title>br</title>
<polygon fill="#34495e" stroke="none" points="26,-141 26,-188 205,-188 205,-141 26,-141"/>
<polygon fill="none" stroke="black" points="26,-141 26,-188 205,-188 205,-141 26,-141"/>
<text text-anchor="start" x="56.5" y="-159.9" font-family="Times,serif" font-size="14.00" fill="white">c_box_retrieval as br</text>
<polygon fill="none" stroke="black" points="26,-95 26,-141 205,-141 205,-95 26,-95"/>
<text text-anchor="start" x="42.5" y="-113.4" font-family="Times,serif" font-size="14.00">br.rj_box_cid as dest_box</text>
<polygon fill="none" stroke="black" points="26,-49 26,-95 205,-95 205,-49 26,-49"/>
<text text-anchor="start" x="61" y="-67.4" font-family="Times,serif" font-size="14.00">br.section as chunk</text>
<polygon fill="none" stroke="black" points="26,-3 26,-49 205,-49 205,-3 26,-3"/>
<text text-anchor="start" x="79" y="-21.4" font-family="Times,serif" font-size="14.00"> &#160;rj_box_cid </text>
</g>
<!-- br&#45;&gt;cr -->
<g id="edge6" class="edge"><title>br:4&#45;&gt;cr:1</title>
<path fill="none" stroke="black" d="M206,-26C274,-26 291,-26 359,-26"/>
</g>
<!-- b1 -->
<g id="node5" class="node"><title>b1</title>
<polygon fill="#34495e" stroke="none" points="333,-820 333,-867 560,-867 560,-820 333,-820"/>
<polygon fill="none" stroke="black" points="333,-820 333,-867 560,-867 560,-820 333,-820"/>
<text text-anchor="start" x="400.5" y="-838.9" font-family="Times,serif" font-size="14.00" fill="white">box_name as b1</text>
<polygon fill="none" stroke="black" points="333,-774 333,-820 560,-820 560,-774 333,-774"/>
<text text-anchor="start" x="378" y="-792.4" font-family="Times,serif" font-size="14.00">b1.box_cid as source_id</text>
<polygon fill="none" stroke="black" points="333,-728 333,-774 560,-774 560,-728 333,-728"/>
<text text-anchor="start" x="349.5" y="-746.4" font-family="Times,serif" font-size="14.00">b1.external_name as source_name</text>
<polygon fill="none" stroke="black" points="333,-682 333,-728 560,-728 560,-682 333,-682"/>
<text text-anchor="start" x="418" y="-700.4" font-family="Times,serif" font-size="14.00"> &#160;box_cid </text>
</g>
<!-- b1&#45;&gt;s1 -->
<g id="edge2" class="edge"><title>b1:10&#45;&gt;s1:5</title>
<path fill="none" stroke="black" d="M561,-705C648.89,-705 582.11,-540 670,-540"/>
</g>
<!-- c&#45;&gt;s1 -->
<g id="edge1" class="edge"><title>c:7&#45;&gt;s1:6</title>
<path fill="none" stroke="black" d="M517,-494C585,-494 602,-494 670,-494"/>
</g>
<!-- s2 -->
<g id="node7" class="node"><title>s2</title>
<polygon fill="#34495e" stroke="none" points="349,-352 349,-399 543,-399 543,-352 349,-352"/>
<polygon fill="none" stroke="black" points="349,-352 349,-399 543,-399 543,-352 349,-352"/>
<text text-anchor="start" x="390" y="-370.9" font-family="Times,serif" font-size="14.00" fill="white">cryovial_store as s2</text>
<polygon fill="none" stroke="black" points="349,-306 349,-352 543,-352 543,-306 349,-306"/>
<text text-anchor="start" x="417.5" y="-324.4" font-family="Times,serif" font-size="14.00"> &#160;box_cid </text>
<polygon fill="none" stroke="black" points="349,-260 349,-306 543,-306 543,-260 349,-260"/>
<text text-anchor="start" x="408.5" y="-278.4" font-family="Times,serif" font-size="14.00"> &#160;cryovial_id </text>
<polygon fill="none" stroke="black" points="349,-214 349,-260 543,-260 543,-214 349,-214"/>
<text text-anchor="start" x="386" y="-232.4" font-family="Times,serif" font-size="14.00">s2.box_cid as dest_id</text>
<polygon fill="none" stroke="black" points="349,-168 349,-214 543,-214 543,-168 349,-168"/>
<text text-anchor="start" x="365.5" y="-186.4" font-family="Times,serif" font-size="14.00">s2.tube_position as dest_pos</text>
<polygon fill="none" stroke="black" points="349,-122 349,-168 543,-168 543,-122 349,-122"/>
<text text-anchor="start" x="418.5" y="-140.4" font-family="Times,serif" font-size="14.00">status = 0</text>
</g>
<!-- s2&#45;&gt;s1 -->
<g id="edge3" class="edge"><title>s2:9&#45;&gt;s1:6</title>
<path fill="none" stroke="black" d="M544,-283C653.226,-283 560.774,-494 670,-494"/>
</g>
<!-- b2 -->
<g id="node8" class="node"><title>b2</title>
<polygon fill="#34495e" stroke="none" points="9,-398 9,-445 222,-445 222,-398 9,-398"/>
<polygon fill="none" stroke="black" points="9,-398 9,-445 222,-445 222,-398 9,-398"/>
<text text-anchor="start" x="69.5" y="-416.9" font-family="Times,serif" font-size="14.00" fill="white">box_name as b2</text>
<polygon fill="none" stroke="black" points="9,-352 9,-398 222,-398 222,-352 9,-352"/>
<text text-anchor="start" x="25.5" y="-370.4" font-family="Times,serif" font-size="14.00">b2.external_name as dest_name</text>
<polygon fill="none" stroke="black" points="9,-306 9,-352 222,-352 222,-306 9,-306"/>
<text text-anchor="start" x="87" y="-324.4" font-family="Times,serif" font-size="14.00"> &#160;box_cid </text>
</g>
<!-- b2&#45;&gt;s2 -->
<g id="edge4" class="edge"><title>b2:3&#45;&gt;s2:2</title>
<path fill="none" stroke="black" d="M223,-329C278.556,-329 292.444,-329 348,-329"/>
</g>
</g>
</svg>
